#!OML:ASF X:\für Bonn\!DataBase\2005_08_11_Bastian_Final\c3d\Bastian.ASF
:FULLY-SPECIFIED
:DEGREES
41
root -1.98084 17.3661 20.2096 -912.096 -18.41 -178.518
lowerback 10.9945 0.161579 0.195365
upperback 11.5283 -1.37743 0.20631
thorax 5.99118 -1.36036 0.112871
lowerneck -8.50187 -8.6855 -14.9036
upperneck -0.445958 -10.63 12.4104
head 2.71732 -5.11542 5.54186
rclavicle -3.67752e-015 1.35174e-014
rhumerus -27.5851 0.565176 -92.7586
rradius 48.4786
rwrist 0.466623
rhand -10.3327 2.64707
rfingers 7.12502
rthumb 15.6633 -26.7389
lclavicle -3.67752e-015 1.35174e-014
lhumerus -26.3158 -2.73527 86.2643
lradius 15.8336
lwrist 9.06912
lhand -8.87746 -9.04182
lfingers 7.12502
lthumb 17.0644 20.2287
rfemur -4.86884 2.28738 22.2116
rtibia 40.0978
rfoot -13.9578 -6.9009
rtoes -1.59372
lfemur 8.40013 3.26846 -13.6621
ltibia 18.495
lfoot -7.984 -14.307
ltoes -11.9609
42
root -1.99248 17.3664 20.2243 -912.1 -18.2715 -178.547
lowerback 11.1958 0.137101 -0.0469724
upperback 11.5393 -1.43851 0.13878
thorax 5.8949 -1.4122 0.185283
lowerneck -8.56697 -8.6666 -15.0372
upperneck -0.418743 -10.5834 12.3922
head 2.73493 -5.09147 5.55834
rclavicle -7.95139e-016 6.55989e-015
rhumerus -27.8885 0.477616 -92.7248
rradius 48.7223
rwrist 0.323021
rhand -10.2365 2.51661
rfingers 7.12502
rthumb 15.7559 -26.8621
lclavicle -7.95139e-016 6.55989e-015
lhumerus -25.8669 -2.37271 85.6349
lradius 16.0982
lwrist 8.65078
lhand -9.02302 -9.22466
lfingers 7.12502
lthumb 16.9243 20.0579
rfemur -5.05828 2.02725 22.1146
rtibia 40.2703
rfoot -13.9186 -7.17516
rtoes -1.10665
lfemur 8.40673 3.27894 -13.7466
ltibia 18.4992
lfoot -8.06564 -14.2492
ltoes -11.7844
43
root -2.0032 17.3659 20.2387 -912.136 -18.1458 -178.571
lowerback 11.4619 0.120868 -0.270361
upperback 11.5352 -1.48758 0.0591141
thorax 5.74646 -1.45573 0.236297
lowerneck -8.57499 -8.64879 -15.175
upperneck -0.405054 -10.5449 12.3903
head 2.74181 -5.07264 5.58223
rclavicle -8.64713e-015 -2.98177e-015
rhumerus -28.2076 0.372459 -92.6879
rradius 48.9477
rwrist 0.170978
rhand -10.1179 2.35541
rfingers 7.12502
rthumb 15.8701 -27.0142
lclavicle -8.64713e-015 -2.98177e-015
lhumerus -25.4853 -2.24134 85.0936
lradius 16.4497
lwrist 8.66053
lhand -9.31071 -9.30124
lfingers 7.12502
lthumb 16.6473 20.0049
rfemur -5.204 1.75277 22.0172
rtibia 40.4237
rfoot -13.928 -7.42487
rtoes -0.727643
lfemur 8.43918 3.33273 -13.8104
ltibia 18.5168
lfoot -8.15943 -14.2366
ltoes -11.9281
44
root -2.01256 17.3669 20.2536 -912.146 -18.0652 -178.623
lowerback 11.723 0.101868 -0.512029
upperback 11.5309 -1.54195 -0.0394414
thorax 5.60119 -1.50178 0.278428
lowerneck -8.58381 -8.63647 -15.2871
upperneck -0.406943 -10.5174 12.4109
head 2.74581 -5.05913 5.60827
rclavicle -1.00386e-014 9.93923e-015
rhumerus -28.5263 0.282504 -92.6702
rradius 49.1722
rwrist -0.00205902
rhand -9.99501 2.19559
rfingers 7.12502
rthumb 15.9885 -27.1646
lclavicle -1.00386e-014 9.93923e-015
lhumerus -25.1045 -2.15694 84.5518
lradius 16.865
lwrist 8.82672
lhand -9.66117 -9.23899
lfingers 7.12502
lthumb 16.3099 20.0951
rfemur -5.37835 1.46157 21.8824
rtibia 40.5622
rfoot -13.8897 -7.67987
rtoes -0.317958
lfemur 8.43525 3.38584 -13.9102
ltibia 18.5353
lfoot -8.28566 -14.224
ltoes -12.4451
45
root -2.02114 17.3665 20.2679 -912.171 -17.9628 -178.654
lowerback 11.9827 0.104917 -0.725589
upperback 11.5403 -1.57056 -0.122393
thorax 5.47209 -1.53494 0.319337
lowerneck -8.58332 -8.63927 -15.4116
upperneck -0.436013 -10.509 12.426
head 2.74298 -5.05583 5.6336
rclavicle 2.8128e-014 -3.57812e-015
rhumerus -28.7775 0.20991 -92.6065
rradius 49.2966
rwrist -0.166583
rhand -9.84674 2.07631
rfingers 7.12502
rthumb 16.1312 -27.2724
lclavicle 2.8128e-014 -3.57812e-015
lhumerus -24.7204 -2.25342 84.1404
lradius 17.3344
lwrist 9.35677
lhand -10.2069 -9.13507
lfingers 7.12502
lthumb 15.7844 20.2414
rfemur -5.54469 1.18143 21.7745
rtibia 40.6792
rfoot -13.874 -7.9096
rtoes -0.310929
lfemur 8.43635 3.43612 -13.9785
ltibia 18.5703
lfoot -8.36215 -14.2207
ltoes -12.2839
46
root -2.02799 17.3657 20.2819 -912.174 -17.9007 -178.702
lowerback 12.238 0.10125 -0.975067
upperback 11.5484 -1.61184 -0.206418
thorax 5.3455 -1.57642 0.380304
lowerneck -8.59359 -8.63408 -15.5365
upperneck -0.479243 -10.4882 12.4412
head 2.73594 -5.04641 5.66003
rclavicle 1.11319e-014 7.15625e-015
rhumerus -28.9947 0.207092 -92.5257
rradius 49.3353
rwrist -0.257984
rhand -9.72168 2.05005
rfingers 7.12502
rthumb 16.2516 -27.2888
lclavicle 1.11319e-014 7.15625e-015
lhumerus -24.3476 -2.35648 83.7382
lradius 17.8399
lwrist 10.0719
lhand -10.7512 -9.0404
lfingers 7.12502
lthumb 15.2602 20.3767
rfemur -5.73029 0.898458 21.6462
rtibia 40.782
rfoot -13.8471 -8.14717
rtoes -0.164985
lfemur 8.41305 3.47668 -14.0671
ltibia 18.5977
lfoot -8.43743 -14.2324
ltoes -12.4158
47
root -2.03408 17.3651 20.2951 -912.208 -17.8555 -178.75
lowerback 12.504 0.110658 -1.2072
upperback 11.5856 -1.64294 -0.309247
thorax 5.24483 -1.61393 0.410554
lowerneck -8.60184 -8.64635 -15.596
upperneck -0.546776 -10.4971 12.443
head 2.72123 -5.05261 5.66984
rclavicle -1.08338e-014 -9.54166e-015
rhumerus -29.1543 0.190683 -92.4661
rradius 49.3418
rwrist -0.354056
rhand -9.61282 1.99068
rfingers 7.12502
rthumb 16.3565 -27.3396
lclavicle -1.08338e-014 -9.54166e-015
lhumerus -23.944 -2.59894 83.355
lradius 18.4071
lwrist 11.1283
lhand -11.3916 -8.8824
lfingers 7.12502
lthumb 14.6433 20.5806
rfemur -5.88446 0.607654 21.5146
rtibia 40.8599
rfoot -13.8573 -8.3601
rtoes 0.0177955
lfemur 8.41812 3.57915 -14.1297
ltibia 18.6201
lfoot -8.50212 -14.3246
ltoes -12.631
48
root -2.03967 17.3641 20.3077 -912.239 -17.8265 -178.775
lowerback 12.7701 0.118787 -1.41196
upperback 11.6195 -1.67499 -0.388808
thorax 5.14121 -1.65055 0.450355
lowerneck -8.64189 -8.67144 -15.7197
upperneck -0.584844 -10.5137 12.456
head 2.72529 -5.06121 5.69064
rclavicle -4.30369e-014 2.0276e-014
rhumerus -29.2787 0.253631 -92.3485
rradius 49.2631
rwrist -0.396126
rhand -9.54285 2.03262
rfingers 7.12502
rthumb 16.4238 -27.2921
lclavicle -4.30369e-014 2.0276e-014
lhumerus -23.5484 -2.81358 83.0304
lradius 19.0005
lwrist 12.2568
lhand -12.0725 -8.78795
lfingers 7.12502
lthumb 13.9872 20.7215
rfemur -6.04969 0.302759 21.3957
rtibia 40.9129
rfoot -13.9372 -8.52212
rtoes 0.193952
lfemur 8.42539 3.67141 -14.1666
ltibia 18.6233
lfoot -8.5166 -14.4207
ltoes -12.5329
49
root -2.04339 17.3643 20.3179 -912.255 -17.8247 -178.851
lowerback 13.0171 0.148166 -1.66086
upperback 11.6683 -1.68541 -0.4945
thorax 5.06441 -1.67941 0.484659
lowerneck -8.66913 -8.69945 -15.7572
upperneck -0.652199 -10.5429 12.4363
head 2.71385 -5.07758 5.68768
rclavicle -1.0138e-014 1.23246e-014
rhumerus -29.393 0.32189 -92.2497
rradius 49.1688
rwrist -0.407254
rhand -9.51606 2.07804
rfingers 7.12502
rthumb 16.4496 -27.2445
lclavicle -1.0138e-014 1.23246e-014
lhumerus -23.12 -2.99971 82.6511
lradius 19.6156
lwrist 13.4758
lhand -12.6523 -8.6903
lfingers 7.12502
lthumb 13.4283 20.8569
rfemur -6.19879 0.0554293 21.2342
rtibia 40.9315
rfoot -14.0147 -8.72152
rtoes 0.231361
lfemur 8.44348 3.72168 -14.2653
ltibia 18.6006
lfoot -8.5286 -14.5057
ltoes -12.5485
50
root -2.04621 17.3642 20.3268 -912.279 -17.8004 -178.874
lowerback 13.2377 0.180525 -1.8603
upperback 11.7235 -1.6894 -0.583838
thorax 5.00855 -1.70271 0.506889
lowerneck -8.63533 -8.7309 -15.8627
upperneck -0.788869 -10.58 12.5024
head 2.68232 -5.09847 5.72478
rclavicle -1.35174e-014 -1.07344e-014
rhumerus -29.4854 0.471017 -92.1422
rradius 49.0576
rwrist -0.435431
rhand -9.51813 2.16356
rfingers 7.12502
rthumb 16.4476 -27.1592
lclavicle -1.35174e-014 -1.07344e-014
lhumerus -22.6767 -3.17906 82.2514
lradius 20.2309
lwrist 14.761
lhand -13.2376 -8.60643
lfingers 7.12502
lthumb 12.8642 20.9771
rfemur -6.37087 -0.161197 21.1349
rtibia 40.9134
rfoot -14.0754 -8.89206
rtoes 0.183513
lfemur 8.47721 3.75471 -14.3063
ltibia 18.5401
lfoot -8.55335 -14.5467
ltoes -12.4956
51
root -2.04832 17.3644 20.3343 -912.314 -17.8089 -178.922
lowerback 13.4486 0.22539 -2.06133
upperback 11.8234 -1.68758 -0.680024
thorax 5.00716 -1.72799 0.520019
lowerneck -8.67453 -8.78774 -15.9638
upperneck -0.913808 -10.6421 12.5467
head 2.66759 -5.13083 5.749
rclavicle -9.93923e-015 1.90833e-014
rhumerus -29.4859 0.634189 -92.023
rradius 48.9028
rwrist -0.43691
rhand -9.55606 2.25473
rfingers 7.12502
rthumb 16.4111 -27.071
lclavicle -9.93923e-015 1.90833e-014
lhumerus -22.1567 -3.17194 81.8121
lradius 20.8544
lwrist 15.9782
lhand -13.7058 -8.59062
lfingers 7.12502
lthumb 12.4128 21.0208
rfemur -6.53383 -0.359099 21.0046
rtibia 40.8611
rfoot -14.0798 -9.05404
rtoes -0.155346
lfemur 8.5575 3.69821 -14.4016
ltibia 18.4326
lfoot -8.57446 -14.4935
ltoes -12.6846
52
root -2.04916 17.3663 20.34 -912.349 -17.8376 -178.97
lowerback 13.6479 0.283689 -2.24862
upperback 11.9304 -1.66805 -0.786956
thorax 5.01889 -1.7437 0.511815
lowerneck -8.70371 -8.85079 -16.0204
upperneck -1.0484 -10.7192 12.6061
head 2.6494 -5.17087 5.77014
rclavicle 1.17283e-014 -8.74653e-015
rhumerus -29.4925 0.759862 -91.913
rradius 48.7727
rwrist -0.424428
rhand -9.59757 2.3225
rfingers 7.12502
rthumb 16.3712 -27.0066
lclavicle 1.17283e-014 -8.74653e-015
lhumerus -21.5499 -2.83702 81.2833
lradius 21.331
lwrist 16.7834
lhand -14.0676 -8.68879
lfingers 7.12502
lthumb 12.064 20.9435
rfemur -6.68513 -0.482458 20.8817
rtibia 40.7634
rfoot -14.1091 -9.24929
rtoes -0.358157
lfemur 8.64774 3.67424 -14.4761
ltibia 18.3054
lfoot -8.58244 -14.4942
ltoes -12.6888
53
root -2.04908 17.3677 20.3447 -912.357 -17.8678 -179.05
lowerback 13.819 0.35122 -2.47982
upperback 12.0461 -1.64189 -0.886227
thorax 5.05682 -1.76052 0.534074
lowerneck -8.72627 -8.9247 -16.0811
upperneck -1.20758 -10.8091 12.6196
head 2.62161 -5.21886 5.77709
rclavicle 1.51076e-014 8.74653e-015
rhumerus -29.4901 0.996467 -91.7941
rradius 48.6903
rwrist -0.491612
rhand -9.69825 2.34782
rfingers 7.12502
rthumb 16.2742 -26.9892
lclavicle 1.51076e-014 8.74653e-015
lhumerus -20.9332 -2.37946 80.7938
lradius 21.8061
lwrist 17.5536
lhand -14.3959 -8.84473
lfingers 7.12502
lthumb 11.7473 20.8059
rfemur -6.86356 -0.611729 20.716
rtibia 40.6372
rfoot -14.1118 -9.39024
rtoes -0.620882
lfemur 8.74088 3.54831 -14.6207
ltibia 18.1466
lfoot -8.58466 -14.3759
ltoes -12.823
54
root -2.04758 17.3694 20.3489 -912.389 -17.901 -179.073
lowerback 14.0329 0.412577 -2.65885
upperback 12.1434 -1.61965 -0.959997
thorax 5.05151 -1.77539 0.556272
lowerneck -8.693 -8.98871 -16.2228
upperneck -1.39968 -10.8871 12.713
head 2.58337 -5.26091 5.82539
rclavicle 3.12092e-014 1.43125e-014
rhumerus -29.4958 1.21028 -91.6511
rradius 48.586
rwrist -0.505073
rhand -9.77157 2.38216
rfingers 7.12502
rthumb 16.2036 -26.9606
lclavicle 3.12092e-014 1.43125e-014
lhumerus -20.3479 -1.79542 80.3254
lradius 22.2507
lwrist 18.1737
lhand -14.634 -8.97067
lfingers 7.12502
lthumb 11.5177 20.6929
rfemur -7.01833 -0.67384 20.6229
rtibia 40.4758
rfoot -14.0947 -9.54545
rtoes -0.551112
lfemur 8.84165 3.40154 -14.6984
ltibia 17.9813
lfoot -8.6236 -14.26
ltoes -13.1891
